<?xml version="1.0" standalone="no"?>
<!DOCTYPE svg PUBLIC "-//W3C//DTD SVG 20010904//EN"
 "http://www.w3.org/TR/2001/REC-SVG-20010904/DTD/svg10.dtd">
<svg version="1.0" xmlns="http://www.w3.org/2000/svg"
 width="225.000000pt" height="225.000000pt" viewBox="0 0 225.000000 225.000000"
 preserveAspectRatio="xMidYMid meet">
<metadata>
Created by potrace 1.14, written by Peter Selinger 2001-2017
</metadata>
<g transform="translate(0.000000,225.000000) scale(0.100000,-0.100000)"
fill="#000000" stroke="none">
<path d="M470 1870 c0 -28 3 -30 35 -30 32 0 35 2 35 30 0 28 -3 30 -35 30
-32 0 -35 -2 -35 -30z"/>
<path d="M608 1870 l4 -30 144 0 144 0 0 30 0 30 -148 0 -149 0 5 -30z"/>
<path d="M1042 1821 c-78 -27 -141 -94 -162 -171 -6 -22 -13 -26 -60 -30 l-54
-5 -23 -75 c-12 -41 -29 -101 -38 -132 l-16 -58 -128 0 -128 0 -22 -77 c-12
-43 -29 -102 -37 -130 l-15 -53 -112 0 c-93 0 -117 -3 -144 -20 -64 -38 -89
-118 -59 -182 9 -19 83 -100 164 -180 116 -115 155 -148 187 -157 56 -15 1394
-15 1450 0 32 9 72 42 189 158 81 80 155 160 162 178 30 70 6 144 -58 183 -28
17 -51 20 -144 20 l-111 0 -17 63 c-9 34 -26 92 -37 130 l-20 67 -124 0 c-136
0 -135 0 -149 66 l-7 30 215 57 c118 31 216 57 219 57 3 0 8 -13 12 -30 4 -16
8 -30 11 -30 7 0 228 61 231 64 3 3 -44 176 -49 182 -2 2 -56 -10 -120 -27
l-116 -31 9 -31 c5 -17 8 -32 6 -33 -11 -10 -431 -114 -437 -107 -4 4 -13 29
-20 56 l-13 47 -53 0 c-42 0 -54 3 -54 15 0 29 -49 112 -82 140 -70 59 -162
76 -246 46z m168 -71 c40 -20 72 -58 90 -104 l10 -26 -185 0 c-123 0 -185 4
-185 10 0 36 64 111 110 129 42 17 118 13 160 -9z m922 -100 c0 -11 1 -25 2
-31 1 -15 -94 -43 -104 -32 -5 4 -10 19 -12 32 -2 20 3 26 37 36 59 19 75 18
77 -5z m-682 -182 c12 -44 24 -87 27 -95 4 -11 -58 -13 -356 -13 -199 0 -361
2 -361 4 0 3 4 16 10 30 10 26 10 26 135 26 l125 0 0 35 0 35 -115 0 c-63 0
-115 3 -115 8 0 4 3 17 6 30 l6 22 308 0 308 0 22 -82z m317 -213 l11 -35
-280 0 -279 0 3 -32 3 -33 288 -3 c158 -1 287 -6 287 -10 0 -4 3 -17 6 -29 l6
-23 -692 0 c-655 0 -692 1 -687 18 2 9 15 54 27 100 l23 82 637 0 637 0 10
-35z m-1534 -256 c26 -32 22 -83 -9 -108 -47 -37 -103 -22 -123 32 -30 79 77
141 132 76z m1703 9 c-3 -13 -6 -26 -6 -30 0 -5 -308 -8 -685 -8 l-685 0 0
-35 0 -35 680 0 680 0 43 -44 c23 -24 49 -45 57 -48 10 -3 4 -15 -25 -46 l-38
-42 -23 38 c-46 77 1 73 -826 70 l-737 -3 -35 -34 c-20 -19 -36 -41 -36 -48 0
-21 -12 -15 -51 23 l-38 37 31 21 c65 44 90 114 65 184 l-8 22 821 0 822 0 -6
-22z m186 -8 c25 -26 29 -36 24 -63 -13 -65 -85 -89 -131 -42 -40 39 -31 94
20 123 32 19 55 14 87 -18z m-1629 -262 c62 -73 -47 -174 -113 -103 -26 28
-31 75 -10 101 33 38 91 40 123 2z m272 15 c-15 -33 -17 -82 -7 -113 l11 -30
-105 0 c-105 0 -105 0 -97 23 10 28 10 74 0 110 l-7 27 106 0 c97 0 106 -1 99
-17z m164 2 c89 -45 20 -175 -74 -139 -18 7 -45 55 -45 79 0 9 13 30 29 46 33
33 50 35 90 14z m291 -11 c-13 -33 -13 -90 0 -115 10 -18 6 -19 -95 -19 l-105
0 7 28 c9 34 9 58 -1 100 l-8 32 106 0 106 0 -10 -26z m181 -3 c17 -18 29 -40
29 -56 0 -36 -41 -75 -80 -75 -39 0 -80 39 -80 75 0 32 50 85 80 85 12 0 35
-13 51 -29z m272 -29 c-3 -36 -1 -67 6 -80 12 -22 11 -22 -99 -22 -106 0 -110
1 -100 19 13 25 13 97 0 122 -10 18 -6 19 94 19 l104 0 -5 -58z m189 28 c25
-26 29 -36 24 -63 -13 -65 -85 -89 -131 -42 -40 39 -31 94 20 123 32 19 55 14
87 -18z"/>
<path d="M1290 380 c0 -27 3 -30 30 -30 27 0 30 3 30 30 0 27 -3 30 -30 30
-27 0 -30 -3 -30 -30z"/>
<path d="M1420 380 l0 -30 145 0 145 0 0 30 0 30 -145 0 -145 0 0 -30z"/>
</g>
</svg>
